ffmpeg version 2.8.11-0ubuntu0.16.04.1 Copyright (c) 2000-2017 the FFmpeg developers
  built with gcc 5.4.0 (Ubuntu 5.4.0-6ubuntu1~16.04.4) 20160609
  configuration: --prefix=/usr --extra-version=0ubuntu0.16.04.1 --build-suffix=-ffmpeg --toolchain=hardened --libdir=/usr/lib/x86_64-linux-gnu --incdir=/usr/include/x86_64-linux-gnu --cc=cc --cxx=g++ --enable-gpl --enable-shared --disable-stripping --disable-decoder=libopenjpeg --disable-decoder=libschroedinger --enable-avresample --enable-avisynth --enable-gnutls --enable-ladspa --enable-libass --enable-libbluray --enable-libbs2b --enable-libcaca --enable-libcdio --enable-libflite --enable-libfontconfig --enable-libfreetype --enable-libfribidi --enable-libgme --enable-libgsm --enable-libmodplug --enable-libmp3lame --enable-libopenjpeg --enable-libopus --enable-libpulse --enable-librtmp --enable-libschroedinger --enable-libshine --enable-libsnappy --enable-libsoxr --enable-libspeex --enable-libssh --enable-libtheora --enable-libtwolame --enable-libvorbis --enable-libvpx --enable-libwavpack --enable-libwebp --enable-libx265 --enable-libxvid --enable-libzvbi --enable-openal --enable-opengl --enable-x11grab --enable-libdc1394 --enable-libiec61883 --enable-libzmq --enable-frei0r --enable-libx264 --enable-libopencv
  libavutil      54. 31.100 / 54. 31.100
  libavcodec     56. 60.100 / 56. 60.100
  libavformat    56. 40.101 / 56. 40.101
  libavdevice    56.  4.100 / 56.  4.100
  libavfilter     5. 40.101 /  5. 40.101
  libavresample   2.  1.  0 /  2.  1.  0
  libswscale      3.  1.101 /  3.  1.101
  libswresample   1.  2.101 /  1.  2.101
  libpostproc    53.  3.100 / 53.  3.100
[mp3 @ 0x15798c0] Unknown attached picture mimetype: ('image/png', None), skipping.
[mp3 @ 0x15798c0] Skipping 0 bytes of junk at 17522.
Input #0, mp3, from 'jan-kochanowski-piesni-ksiegi-wtore-piesn-xii-nie-masz-i-po-drugi-raz-nie-masz-watp.mp3':
  Metadata:
    title           : Jan Kochanowski, Pieśni, Księgi wtóre, Pieśń XII (Nie masz, i po drugi raz nie masz wątpliwości...)
    artist          : Krzysztof Skonieczny
    album           : Wolne Lektury
    encoder         : Lavf53.21.0
    genre           : Speech
    originator_reference: XANdzcG30gnaaaGk
    date            : 2008-10-30
    performer       : Iwo Vedral
    album_artist    : Fundacja Nowoczesna Polska
    time_reference  : 389637625
    copyright       : 2008 Fundacja Nowoczesna Polska. Licensed to the public under http://creativecommons.org/licenses/by-sa/3.0/deed.pl verify at http://wolnelektury.pl/katalog/lektura/piesni-ksiegi-wtore-piesn-xii/
    creation_time   : 0014-59-43
    encoded_by      : Pro Tools
    publisher       : Fundacja Nowoczesna Polska
  Duration: 00:01:20.07, start: 0.000000, bitrate: 65 kb/s
    Stream #0:0: Audio: mp3, 44100 Hz, mono, s16p, 64 kb/s
Output #0, null, to 'pipe:':
  Metadata:
    title           : Jan Kochanowski, Pieśni, Księgi wtóre, Pieśń XII (Nie masz, i po drugi raz nie masz wątpliwości...)
    artist          : Krzysztof Skonieczny
    album           : Wolne Lektury
    publisher       : Fundacja Nowoczesna Polska
    genre           : Speech
    originator_reference: XANdzcG30gnaaaGk
    date            : 2008-10-30
    performer       : Iwo Vedral
    album_artist    : Fundacja Nowoczesna Polska
    time_reference  : 389637625
    copyright       : 2008 Fundacja Nowoczesna Polska. Licensed to the public under http://creativecommons.org/licenses/by-sa/3.0/deed.pl verify at http://wolnelektury.pl/katalog/lektura/piesni-ksiegi-wtore-piesn-xii/
    encoded_by      : Pro Tools
    encoder         : Lavf56.40.101
    Stream #0:0: Audio: pcm_s16le, 44100 Hz, mono, s16, 705 kb/s
    Metadata:
      encoder         : Lavc56.60.100 pcm_s16le
Stream mapping:
  Stream #0:0 -> #0:0 (mp3 (native) -> pcm_s16le (native))
Press [q] to stop, [?] for help
[silencedetect @ 0x158c9a0] silence_start: -0.00367347
[silencedetect @ 0x158c9a0] silence_end: 0.548571 | silence_duration: 0.552245
[silencedetect @ 0x158c9a0] silence_start: 1.64204
[silencedetect @ 0x158c9a0] silence_end: 2.37714 | silence_duration: 0.735102
[silencedetect @ 0x158c9a0] silence_start: 2.97429
[silencedetect @ 0x158c9a0] silence_end: 3.70939 | silence_duration: 0.735102
[silencedetect @ 0x158c9a0] silence_start: 4.59388
[silencedetect @ 0x158c9a0] silence_end: 5.51184 | silence_duration: 0.917959
[silencedetect @ 0x158c9a0] silence_start: 6.60531
[silencedetect @ 0x158c9a0] silence_end: 7.88898 | silence_duration: 1.28367
[silencedetect @ 0x158c9a0] silence_start: 10.9416
[silencedetect @ 0x158c9a0] silence_end: 11.5461 | silence_duration: 0.60449
[silencedetect @ 0x158c9a0] silence_start: 14.2592
[silencedetect @ 0x158c9a0] silence_end: 14.8898 | silence_duration: 0.630612
[silencedetect @ 0x158c9a0] silence_start: 20.842
[silencedetect @ 0x158c9a0] silence_end: 21.7861 | silence_duration: 0.944082
[silencedetect @ 0x158c9a0] silence_start: 27.9996
[silencedetect @ 0x158c9a0] silence_end: 28.5518 | silence_duration: 0.552245
[silencedetect @ 0x158c9a0] silence_start: 32.8584
[silencedetect @ 0x158c9a0] silence_end: 33.5151 | silence_duration: 0.656735
[silencedetect @ 0x158c9a0] silence_start: 34.9482
[silencedetect @ 0x158c9a0] silence_end: 36.0229 | silence_duration: 1.07469
[silencedetect @ 0x158c9a0] silence_start: 43.4641
[silencedetect @ 0x158c9a0] silence_end: 44.0163 | silence_duration: 0.552245
[silencedetect @ 0x158c9a0] silence_start: 48.3229
[silencedetect @ 0x158c9a0] silence_end: 49.1624 | silence_duration: 0.839592
[silencedetect @ 0x158c9a0] silence_start: 55.3237
[silencedetect @ 0x158c9a0] silence_end: 56.0588 | silence_duration: 0.735102
[silencedetect @ 0x158c9a0] silence_start: 57.518
[silencedetect @ 0x158c9a0] silence_end: 58.0963 | silence_duration: 0.578367
[silencedetect @ 0x158c9a0] silence_start: 62.7163
[silencedetect @ 0x158c9a0] silence_end: 63.8433 | silence_duration: 1.12694
[silencedetect @ 0x158c9a0] silence_start: 66.2429
[silencedetect @ 0x158c9a0] silence_end: 66.769 | silence_duration: 0.526122
[silencedetect @ 0x158c9a0] silence_start: 68.4371
[silencedetect @ 0x158c9a0] silence_end: 69.3551 | silence_duration: 0.917959
[silencedetect @ 0x158c9a0] silence_start: 77.0837
size=N/A time=00:01:20.06 bitrate=N/A    
video:0kB audio:6896kB subtitle:0kB other streams:0kB global headers:0kB muxing overhead: unknown
